<?xml version="1.0" encoding="utf-8"?>
<!-- Uploaded to: SVG Repo, www.svgrepo.com, Generator: SVG Repo Mixer Tools -->
<svg width="800px" height="800px" viewBox="-39.18 0 329.554 329.554" xmlns="http://www.w3.org/2000/svg"><defs><style>.a{fill:#ffffff;}.b{fill:#b3b3b3;}.c{fill:#3d8dcc;}.d{fill:#211715;}.e{fill:#85807f;}.f{fill:#ececec;}</style></defs><path class="a" d="M158.468,80.957a7.445,7.445,0,0,1,5.38-1.969,6.905,6.905,0,0,1,6.2,3.446c2.108,3.655,2.019,10.391.6,14.558-1,2.951-2.643,7.466-6.6,10.7a8.2,8.2,0,0,1-6.324,1.826s-.155-.027-.436-.073c-.749,2.185-1.686,4.128-2,5.087-1.533,4.162-9.751,18.374-20.3,24.692v2.981c-.943.763-20.158,15.914-21.615,16.947h-3.385c-1.457-1.033-20.673-16.184-21.615-16.947v-2.872a48.992,48.992,0,0,1-11.987-10.6,55.908,55.908,0,0,1-10.4-19.294,8.078,8.078,0,0,1-6.679-1.75c-3.957-3.237-5.6-7.752-6.6-10.7-1.415-4.167-1.5-10.9.6-14.558a6.907,6.907,0,0,1,6.2-3.446,7.444,7.444,0,0,1,5.379,1.969S56.618,38.8,109.951,38.8,158.468,80.957,158.468,80.957Z"/><path class="b" d="M81.215,164.2q-1.477-6.063-2.82-12.021a104.184,104.184,0,0,0-9.42,6.871c-13.4,4.115-23.908,8.206-35.976,15.863a39.179,39.179,0,0,0-11.75,11.806c-3.7,5.711-6.511,13.421-8.083,20.083C11.349,214.5,10.5,218.789,8.8,229.05a489.356,489.356,0,0,0-6.271,56.239c-.492,8,.278,16.6,3.282,24.008S16.352,323.7,23.854,326a24.072,24.072,0,0,0,16.6-.57h130.7c.345-6.872,1.208-21.534,2.226-37.975.845,1.313,1.424,2.215,1.424,2.215,7.17,11.432,21.8,16.421,33.966,13.933a28.812,28.812,0,0,0,22.242-20.364c4.342-15.286,7.786-38.973,9.227-52.4a.888.888,0,0,0-.785-.982c-4.716-.549-9.737-1.175-14.857-1.867l-29.614-49.378a45.14,45.14,0,0,0-17.286-13.3,151.929,151.929,0,0,0-22.453-6.765l-2-.417c-2.977-2.367-5.938-4.451-8.272-5.945-5.009,22.243-11.554,46.029-18.6,67.657-5.486,16.849-7.1,22-14.692,40.573-7.58-18.578-9.2-23.723-14.684-40.573C91.205,202.066,85.754,182.836,81.215,164.2Z"/><path class="a" d="M95.283,214.516c-5.751-18.153-11.1-37.576-15.467-56.177l-.057-1.345c-.727-1.959.213-4.675,1.491-6.155,2.17-2.514,4.9-6.149,7.123-8.631.942.763,20.158,15.914,21.615,16.947h3.385c1.457-1.033,20.672-16.184,21.615-16.947,2.218,2.482,4.952,6.117,7.122,8.631,1.278,1.48,2.218,4.2,1.491,6.155l.123.576c-4.823,20.662-10.879,42.378-17.356,62.268-5.487,16.851-7.1,22-14.693,40.571-7.579-18.576-9.2-23.721-14.683-40.571Q96.133,217.2,95.283,214.516Z"/><path class="c" d="M102.078,197.544c1.173-8.328,1.989-14.292,1.979-14.853a21.454,21.454,0,0,0-1.252-5.972,32.972,32.972,0,0,0-1.584-5.154l-.338-.745c3.095-4.171,6.827-9.1,9.105-11.665h3.385c2.284,2.57,6.033,7.525,9.133,11.705l-.039.131c-.646,2.656-.748,3.939-1.3,6.446q-.154.756-.348,1.511a14.98,14.98,0,0,0-.517,3.372c0,.641,2.861,22.687,4.975,40.883-4.647,14.27-6.538,19.927-13.6,37.207-6.926-16.976-8.873-22.735-13.344-36.46C99.64,214.717,101.008,205.145,102.078,197.544Z"/><path class="d" d="M119.56,176.915c-5.009,0-10.017-.052-15.025-.053a2.4,2.4,0,1,0,0,4.8c5.008,0,10.016.052,15.025.053a2.4,2.4,0,0,0,0-4.8Z"/><path class="d" d="M120.153,170.353c-.46,1.925-.763,3.876-1.168,5.812-.421,2.012-1.167,4.123-1.085,6.2.053,1.375.319,2.769.487,4.132.867,7.024,1.753,14.046,2.614,21.072q.915,7.477,1.793,14.959a2.474,2.474,0,0,0,2.4,2.4,2.414,2.414,0,0,0,2.4-2.4q-1.471-12.607-3.059-25.2c-.606-4.869-1.429-9.766-1.807-14.66a14.5,14.5,0,0,1,.67-4.212c.5-2.268.844-4.565,1.383-6.824.717-3-3.911-4.284-4.628-1.276Z"/><path class="d" d="M100.877,222.95q1.814-12.778,3.626-25.556.651-4.623,1.282-9.25c.23-1.707.547-3.438.654-5.159a16.273,16.273,0,0,0-.84-5.324,52.664,52.664,0,0,0-2.306-7.307,2.418,2.418,0,0,0-3.284-.861,2.459,2.459,0,0,0-.861,3.284,44.716,44.716,0,0,1,1.757,5.933,12.926,12.926,0,0,1,.742,4.177c-.025.516-.11,1.035-.174,1.547q-.072.582-.149,1.163c-.032.245-.064.491-.1.736-.046.353-.074.561-.071.534-.9,6.715-1.868,13.421-2.821,20.128q-1.042,7.339-2.087,14.679a2.481,2.481,0,0,0,1.677,2.952,2.417,2.417,0,0,0,2.952-1.676Z"/><path class="d" d="M86.675,140.511c-1.377,1.554-2.674,3.177-3.975,4.8-1.284,1.6-2.76,3.131-3.913,4.827a8.361,8.361,0,0,0-.644,8.884,106.941,106.941,0,0,0,9.587,13.645,32.758,32.758,0,0,0,7.075,6.825,2.46,2.46,0,0,0,3.284-.861c4.463-5.959,8.659-12.19,13.6-17.775a2.446,2.446,0,0,0-.486-3.769c-.3-.211-.581-.435-.868-.655l-.347-.267s.358.278-.026-.02l-1-.781q-2.543-1.977-5.073-3.967-5.454-4.278-10.895-8.574c-.973-.768-1.951-1.529-2.915-2.308a2.474,2.474,0,0,0-3.395,0,2.418,2.418,0,0,0,0,3.394c6.108,4.928,12.32,9.736,18.511,14.56,1.19.926,2.363,1.885,3.59,2.762l-.486-3.769c-5.206,5.89-9.638,12.462-14.346,18.746l3.284-.861a14.886,14.886,0,0,1-2.325-1.921c-.978-.939-1.9-1.941-2.781-2.967a85.911,85.911,0,0,1-5.24-6.821c-1.349-1.924-2.654-3.881-3.891-5.88-.35-.564-.731-1.13-1.028-1.725a2.157,2.157,0,0,1-.1-.195c.194.5.057-.17.05-.333a4.533,4.533,0,0,1,.5-2.062c.785-1.627,2.3-3.011,3.424-4.41,1.388-1.728,2.767-3.465,4.238-5.124C92.113,141.6,88.73,138.194,86.675,140.511Z"/><path class="d" d="M133.291,143.905c2.45,2.764,4.923,5.665,7.122,8.631a5.523,5.523,0,0,1,.83,1.664,4.574,4.574,0,0,1,.2.951c.018.207-.038.929,0,.787.065-.232-.125.229-.191.346-.169.3-.345.586-.521.877a102.778,102.778,0,0,1-8.7,12.349c-.983,1.184-2,2.341-3.089,3.43-.5.5-1.015.989-1.551,1.451a7.588,7.588,0,0,1-1.265.952l3.284.861c-4.707-6.284-9.14-12.856-14.346-18.746l-.486,3.769c2.737-1.958,5.343-4.128,7.99-6.2q5.568-4.367,11.121-8.751c1-.787,2-1.569,2.99-2.367a2.416,2.416,0,0,0,0-3.394,2.457,2.457,0,0,0-3.394,0c-6.032,4.867-12.167,9.614-18.279,14.378l-1.163.905-.507.394c-.463.359.345-.264-.069.053-.369.282-.734.571-1.112.842a2.445,2.445,0,0,0-.485,3.769c4.936,5.585,9.132,11.816,13.6,17.775a2.448,2.448,0,0,0,3.284.861c5.107-3.342,8.893-8.87,12.324-13.8,1.405-2.018,2.768-4.071,4.041-6.175a9.545,9.545,0,0,0,1.046-2.04,8.706,8.706,0,0,0-.716-6.138c-.9-1.951-2.6-3.554-3.934-5.214-1.522-1.889-3.022-3.8-4.631-5.612C134.631,138.2,131.247,141.6,133.291,143.905Z"/><path class="d" d="M173.549,325.431c.644-12.806,1.459-25.6,2.252-38.4q1.517-24.477,3.178-48.946c.42-6.082.835-12.167,1.35-18.242a2.418,2.418,0,0,0-2.4-2.4,2.45,2.45,0,0,0-2.4,2.4c-1.091,12.87-1.876,25.77-2.716,38.658q-1.591,24.432-3.047,48.874c-.356,6.018-.714,12.037-1.017,18.058-.155,3.087,4.646,3.079,4.8,0Z"/><path class="d" d="M96.19,257.272c-12.007-20.812-23.874-41.719-34.943-63.048q-.628-1.21-1.252-2.422a13.306,13.306,0,0,1-1.03-2.008c-.153-.5-.054-.4.448-.944q.876-.94,1.775-1.862c2.395-2.461,4.886-4.826,7.39-7.175a2.421,2.421,0,0,0-.486-3.769l-4.771-2.724-2.169-1.238c-.433-.247-.868-.493-1.3-.742l-.434-.248q-.534-.333.1.09l.328,1.211q-.21.454-.06.147c.058-.119.119-.237.182-.354.107-.2.22-.4.336-.6.244-.416.507-.821.782-1.218a25.693,25.693,0,0,1,1.908-2.4,59.48,59.48,0,0,1,5.4-5.291,94.818,94.818,0,0,1,11.22-8.431l-3.526-1.434a773.713,773.713,0,0,0,24.589,85.7c2.35,6.7,4.953,13.313,7.619,19.9a2.476,2.476,0,0,0,2.952,1.676,2.417,2.417,0,0,0,1.677-2.952c-10.529-26-18.834-52.941-25.965-80.056q-3.344-12.714-6.243-25.537a2.419,2.419,0,0,0-3.526-1.435,89.651,89.651,0,0,0-16.418,13.2,41.472,41.472,0,0,0-3.385,4.019,12.033,12.033,0,0,0-2.265,4.1c-.622,2.761,2.094,3.927,4.047,5.042l6.507,3.713-.486-3.769c-2.333,2.188-4.655,4.391-6.9,6.672-2.2,2.239-5.183,4.687-3.885,8.18a74.535,74.535,0,0,0,4.182,8.216q2.15,4.105,4.336,8.191c6.023,11.255,12.232,22.409,18.531,33.512q5.26,9.273,10.6,18.5c1.543,2.675,5.693.26,4.145-2.423Z"/><path class="d" d="M131.315,259.7c12.611-21.859,25.078-43.822,36.608-66.274.855-1.664,1.733-3.281,1.195-5.2-.488-1.745-2.008-3.029-3.225-4.288-2.5-2.582-5.1-5.055-7.717-7.511l-.485,3.769,6.506-3.713c1.957-1.117,4.671-2.272,4.047-5.042a12.074,12.074,0,0,0-2.264-4.1,41.625,41.625,0,0,0-3.386-4.019,89.651,89.651,0,0,0-16.418-13.2,2.417,2.417,0,0,0-3.525,1.435,773.713,773.713,0,0,1-24.589,85.7c-2.351,6.7-4.954,13.313-7.619,19.9a2.415,2.415,0,0,0,1.676,2.952,2.459,2.459,0,0,0,2.952-1.676c10.529-26,18.834-52.941,25.965-80.056q3.342-12.714,6.243-25.537l-3.526,1.434a94.927,94.927,0,0,1,11.22,8.431,59.875,59.875,0,0,1,5.282,5.164,26.346,26.346,0,0,1,1.936,2.4c.279.4.547.8.8,1.221q.213.354.408.717l.123.237q.234.485,0-.03l.328-1.211q.576-.384.22-.163-.273.168-.555.321l-1.084.619-2.386,1.361-4.771,2.724a2.422,2.422,0,0,0-.486,3.769c2.219,2.081,4.428,4.175,6.568,6.338q.743.748,1.474,1.511c.375.39,1.422,1.192,1.6,1.7.083.239.057.213-.129.632-.334.751-.758,1.479-1.135,2.21q-4.023,7.8-8.19,15.525-8.632,16.038-17.667,31.857-5.032,8.861-10.131,17.685c-1.546,2.681,2.6,5.1,4.145,2.423Z"/><path class="d" d="M40.439,327.831h130.71c3.089,0,3.094-4.8,0-4.8H40.439c-3.088,0-3.093,4.8,0,4.8Z"/><path class="d" d="M34.374,219.838q2.076,16.275,4.133,32.552a2.477,2.477,0,0,0,2.4,2.4,2.414,2.414,0,0,0,2.4-2.4q-2.04-16.279-4.133-32.552a2.478,2.478,0,0,0-2.4-2.4,2.415,2.415,0,0,0-2.4,2.4Z"/><path class="d" d="M64.667,157.889a151,151,0,0,0-23.324,9.443,90.7,90.7,0,0,0-11.285,6.682,42.393,42.393,0,0,0-8.938,8.744c-4.982,6.521-8.055,14.532-10.033,22.44-1.652,6.6-2.925,13.294-4.065,20-2.386,14.038-4.355,28.13-5.6,42.318Q.881,273.76.466,280.011a109.6,109.6,0,0,0-.384,13.265c.451,8.42,2.339,17.075,7.6,23.851,4.915,6.336,12.006,11.054,20.022,12.182,7.863,1.107,15.077-1.659,21.638-5.808,1.747-1.1,3.446-2.282,5.131-3.477a2.466,2.466,0,0,0,.861-3.284,2.419,2.419,0,0,0-3.283-.861c-5.668,4.022-11.966,8.425-19.137,8.879-7.359.467-14.171-2.848-19.241-8.032-11.685-11.944-8.962-30.617-7.735-45.735,1.08-13.308,2.765-26.526,4.915-39.7,1.087-6.667,2.239-13.323,3.722-19.915,1.639-7.278,3.648-14.478,7.305-21.034a39.055,39.055,0,0,1,6.923-9.064,49.189,49.189,0,0,1,9.755-6.931,126.367,126.367,0,0,1,21.558-9.868c1.934-.683,3.879-1.331,5.831-1.96,2.929-.942,1.676-5.579-1.276-4.628Z"/><path class="e" d="M55.674,46.134a89.9,89.9,0,0,0,.468,33.635,8.231,8.231,0,0,1,3.371-.781,7.1,7.1,0,0,1,6.932,4.245c.211-4.4.789-8.961,4.219-12.469,1.825-1.866,4.41-3.371,5.5-5.541.924-1.838,1.073-3.824,2.036-5.651a9.867,9.867,0,0,1,2.992-3.426,17.4,17.4,0,0,1,5.68-2.365c2.892-.762,17.018-1.759,20.825-1.939,0,0,10.582-2.145,16.32-2.145a47.781,47.781,0,0,1,11.994,1.421,21.783,21.783,0,0,1,11.771,8.921c2.972,4.241,4.186,8.457,5.582,14.5l5.1,6.413a7.445,7.445,0,0,1,5.38-1.969,8.8,8.8,0,0,1,2.64.473c3.2-14.227,3.769-30.728-2.532-44.677-.746-1.653-3.95-10.174-11.264-16.008-5.915-4.719-8.826-5.7-12.926-5.657L131.673,9.9a17.317,17.317,0,0,0-8-5C110.84.435,96.056,2.205,84.381,8.186a55.919,55.919,0,0,0-26.1,28.672A52.97,52.97,0,0,0,55.674,46.134Z"/><path class="d" d="M135.373,53.432a20.1,20.1,0,0,1,10.634,8.252c2.743,4.077,3.946,8.768,5.042,13.5.7,3.008,5.327,1.735,4.629-1.276-1.239-5.347-2.715-10.7-5.932-15.231a25.174,25.174,0,0,0-13.1-9.871c-2.956-.922-4.22,3.71-1.276,4.628Z"/><path class="d" d="M139.766,15.519a10.9,10.9,0,0,1,4.633.752A25.314,25.314,0,0,1,150,19.7a34.281,34.281,0,0,1,9.317,10.918,58.073,58.073,0,0,1,7.036,25.672A84.572,84.572,0,0,1,164.88,75.4a2.466,2.466,0,0,0,1.676,2.953,2.421,2.421,0,0,0,2.952-1.677c2.27-12.131,2.636-24.955-1.079-36.849-2.7-8.641-7.218-17.367-14.421-23.055-4.278-3.378-8.638-6.091-14.242-6.057-3.088.02-3.094,4.82,0,4.8Z"/><path class="d" d="M58.092,77.315a88.018,88.018,0,0,1-.944-24.766,53.02,53.02,0,0,1,7.158-22.455C72.874,16,87.9,6.225,104.439,4.954a46.606,46.606,0,0,1,14.53,1.066c4.173,1.009,8.015,2.4,11.007,5.574,2.123,2.253,5.513-1.146,3.394-3.394A23.3,23.3,0,0,0,122.7,2.06,49.336,49.336,0,0,0,108.68,0,55.592,55.592,0,0,0,81.792,6.845,58.955,58.955,0,0,0,62.314,24.4a54.924,54.924,0,0,0-9.421,23.846,92.174,92.174,0,0,0,.57,30.347,2.423,2.423,0,0,0,2.953,1.676,2.452,2.452,0,0,0,1.676-2.952Z"/><path class="d" d="M107.7,49.442c-6.539.315-13.145.753-19.627,1.691-3.8.549-7.928,2.027-10.436,5.053-1.812,2.185-2.332,4.606-3.281,7.2-.748,2.044-2.7,3.27-4.276,4.647-4.57,3.992-5.756,9.536-6.041,15.349-.152,3.088,4.648,3.08,4.8,0,.211-4.306.87-8.53,4.206-11.573,1.687-1.539,3.568-2.834,4.844-4.772,1.32-2,1.374-4.512,2.554-6.557,1.751-3.034,5.342-4.157,8.616-4.676.13-.02.261-.038.391-.057.365-.053-.391.05,0,0q.527-.068,1.053-.129,1.2-.14,2.4-.257c1.706-.17,3.414-.318,5.123-.457,3.221-.261,6.447-.506,9.675-.662,3.075-.148,3.093-4.949,0-4.8Z"/><path class="d" d="M107.256,45.25a28.6,28.6,0,0,1,4.691-.121c.166.013.332.028.5.045.451.045-.553-.1.23.029.335.056.669.119,1,.194a16.738,16.738,0,0,1,2.327.709c-.219-.085.111.045.157.066q.238.109.473.228c.348.175.688.367,1.02.57s.638.414.951.633c.078.054.3.227.1.071.126.1.249.2.371.3a13.522,13.522,0,0,1,1.431,1.4c.088.1.17.207.259.306-.126-.139-.176-.252-.03-.036.157.232.311.461.449.7a2.4,2.4,0,0,0,4.145-2.422,15.321,15.321,0,0,0-7.234-6.116,22.009,22.009,0,0,0-10.84-1.367,2.4,2.4,0,0,0,0,4.8Z"/><path class="a" d="M96.215,229.621c-3.473,2.032-17.245,10.253-26.307,15.749l-1.5-8.02a58.36,58.36,0,0,0-13.519,8.988,15.794,15.794,0,0,0-3.788,6.283c-1.57,4.59-2.96,11.2-2.078,17.179l.1.692A52.138,52.138,0,0,0,63,288.414a85.639,85.639,0,0,0,15.718-1.188,26.378,26.378,0,0,0,10.086-4.708,81.321,81.321,0,0,0,18.957-17.887,5.439,5.439,0,0,0,.993-2.584,2.986,2.986,0,0,0-.788-2.564L106,257.655c.765-.6,1.305-1.043,1.532-1.261a8.638,8.638,0,0,0,2.381-3.238,4.331,4.331,0,0,0,.047-2.494,3.136,3.136,0,0,0-3.664-2.725l-1.79.272c2.012-1.479,3.5-2.585,4.025-3.006.237-.19.48-.394.725-.611a14.949,14.949,0,0,0,3.545-4.361,4.856,4.856,0,0,0-.663-5.087c-1.381-1.834-3.79-2.446-6.981-1.451a4.2,4.2,0,0,0-1.226-4.073c-1.994-2.2-5.663-1.186-7.226-.285Z"/><path class="d" d="M51.338,269.162a30.73,30.73,0,0,1,.529-10.185,27.378,27.378,0,0,1,3.049-8.875c1.472-2.411,4.051-4.192,6.341-5.786a74.144,74.144,0,0,1,8.469-4.949c2.747-1.416.322-5.559-2.422-4.145a70.886,70.886,0,0,0-9.21,5.474c-2.847,2.063-5.745,4.242-7.53,7.333a32.5,32.5,0,0,0-3.409,10.092,37.5,37.5,0,0,0-.446,12.317,2.415,2.415,0,0,0,2.952,1.677,2.466,2.466,0,0,0,1.677-2.953Z"/><rect class="f" x="68.36" y="192.155" width="47.379" height="85.482" rx="5.156" transform="translate(-41.593 20.913) rotate(-10.588)"/><path class="d" d="M117.483,271.189l-24.822,4.64c-3.722.7-7.44,1.445-11.172,2.089a2.887,2.887,0,0,1-3.506-2.366c-.1-.464-.175-.934-.262-1.4l-4.367-23.364-6.125-32.77-2.214-11.839a43.355,43.355,0,0,1-.84-4.572c-.15-2,1.443-2.818,3.115-3.131l4.434-.829,15.676-2.93,13.676-2.556a8.522,8.522,0,0,1,2.719-.355c1.522.233,2.142,1.508,2.4,2.851,1.307,6.815,2.55,13.643,3.825,20.465l6.17,33.006,2.456,13.141c.409,2.188.918,4.382,1.231,6.586a2.862,2.862,0,0,1-2.394,3.334c-3.014.67-1.739,5.3,1.276,4.629a7.672,7.672,0,0,0,5.79-9.007c-.1-.587-.219-1.171-.328-1.757l-1.857-9.934-6.126-32.769-5.006-26.781c-.147-.785-.287-1.571-.44-2.355a7.676,7.676,0,0,0-5.211-5.89,10.368,10.368,0,0,0-5.175.094l-5.513,1.03-28.915,5.405A7.792,7.792,0,0,0,60,198.383a8.693,8.693,0,0,0-.34,5.186l1.488,7.956,5.919,31.668,5.421,29a33.309,33.309,0,0,0,1.161,5.642A7.709,7.709,0,0,0,82.5,282.6c1.2-.212,2.4-.449,3.6-.674l30.251-5.654,2.411-.451a2.421,2.421,0,0,0,1.676-2.952A2.451,2.451,0,0,0,117.483,271.189Z"/><path class="a" d="M66.206,249.06l-.062-1.4c8.8-5.392,27.844-16.759,30.563-18.326,1.563-.9,5.232-1.917,7.226.285a4.207,4.207,0,0,1,1.234,4.049c.417-.108.665-.169.665-.169,2.861-.707,5.027-.058,6.308,1.644a4.856,4.856,0,0,1,.663,5.087,15.992,15.992,0,0,1-4.27,4.972c-.527.421-2.012,1.527-4.025,3l1.79-.271a3.136,3.136,0,0,1,3.664,2.725,4.331,4.331,0,0,1-.047,2.494,8.638,8.638,0,0,1-2.381,3.238c-.227.218-.765.658-1.527,1.257l1.963,1.832a2.986,2.986,0,0,1,.788,2.559,5.571,5.571,0,0,1-.991,2.592A81.483,81.483,0,0,1,88.8,282.523a26.374,26.374,0,0,1-10.087,4.7,44.406,44.406,0,0,1-10.8.108Z"/><path class="d" d="M73.51,207.593q3.051-.571,6.1-1.144a2.418,2.418,0,0,0,1.434-1.1,2.4,2.4,0,0,0-.861-3.284,2.688,2.688,0,0,0-1.849-.242q-3.051.572-6.1,1.144a2.418,2.418,0,0,0-1.434,1.1,2.4,2.4,0,0,0,.861,3.284,2.688,2.688,0,0,0,1.849.242Z"/><path class="d" d="M67.355,249.733q14.25-8.721,28.648-17.2c1.464-.865,2.6-1.68,4.155-1.817a2.862,2.862,0,0,1,1.538.178,2.135,2.135,0,0,1,.915.935c.2.373.361.548.316.913a3.189,3.189,0,0,1-1.069,1.374c-.245.207-.5.405-.748.6l-.39.306a3,3,0,0,1-.249.193q-1.373,1.047-2.757,2.077-3.366,2.5-6.771,4.956c-4.887,3.533-9.783,7.069-14.793,10.428-2.552,1.712-.152,5.872,2.423,4.145,4.789-3.212,9.472-6.589,14.148-9.963,4.207-3.036,8.568-5.993,12.531-9.352a6.365,6.365,0,0,0,.259-9.705c-2.677-2.672-7.015-2.212-10.079-.5-4.05,2.259-7.992,4.735-11.971,7.115-6.189,3.7-12.377,7.409-18.528,11.175-2.631,1.61-.222,5.763,2.422,4.144Z"/><path class="d" d="M106.47,235.814c1.691-.382,3.519-.256,4.228,1.584.78,2.026-1.648,4.151-2.96,5.339-.308.279-.64.531-.951.807-.353.314.176-.133.133-.1-.291.215-.577.438-.867.654q-1.312.982-2.636,1.951-7.693,5.654-15.454,11.215c-2.024,1.456-4.044,2.919-6.092,4.343a2.463,2.463,0,0,0-.861,3.284,2.422,2.422,0,0,0,3.284.861c5.06-3.519,10.03-7.173,15.017-10.795q3.963-2.877,7.908-5.78c2.636-1.949,5.273-3.9,7.079-6.708a7.532,7.532,0,0,0-.659-9.268c-2.142-2.436-5.469-2.688-8.445-2.014-3.011.681-1.737,5.31,1.276,4.628Z"/><path class="d" d="M106.3,250.337a3.13,3.13,0,0,1,.783-.035.681.681,0,0,1,.194.09c-.171-.128.1.126.1.133-.214-.313-.017.014.019.068.015.023.188.348.068.1-.113-.235.049.13.063.184a2.8,2.8,0,0,1-.821,2.945,25.147,25.147,0,0,1-3.255,2.8c-.21.163.063-.049.087-.067l-.335.258-.529.405q-.668.51-1.337,1.018-1.5,1.134-3,2.262-3.066,2.3-6.141,4.592-2.782,2.075-5.564,4.147a2.474,2.474,0,0,0-.861,3.283,2.417,2.417,0,0,0,3.284.861c4.233-3.164,8.481-6.309,12.7-9.49,1.991-1.5,3.982-3,5.942-4.544a13.169,13.169,0,0,0,4.4-5.267c1.6-3.929-1.334-9.044-5.811-8.543a2.472,2.472,0,0,0-2.4,2.4,2.415,2.415,0,0,0,2.4,2.4Z"/><path class="d" d="M106.273,261.18c.928,1.01-1.546,3.48-2.082,4.131q-2.025,2.46-4.247,4.746a80.1,80.1,0,0,1-9.775,8.55c-3.474,2.571-7.164,5.224-11.456,6.172a34.971,34.971,0,0,1-10.793.152,2.413,2.413,0,0,0-2.4,2.4,2.459,2.459,0,0,0,2.4,2.4,41.8,41.8,0,0,0,10.054.006,25.713,25.713,0,0,0,10.782-4.3,83.8,83.8,0,0,0,17.865-15.586c1.459-1.7,3.233-3.5,4.045-5.622a6.056,6.056,0,0,0-1-6.445c-2.095-2.28-5.482,1.121-3.394,3.394Z"/><path class="d" d="M45,266.41A48.69,48.69,0,0,0,53.4,281.934c3.56,4.591,7.873,8.93,13.089,11.609,2.743,1.409,5.175-2.732,2.423-4.145-4.675-2.4-8.539-6.26-11.742-10.373a43.608,43.608,0,0,1-7.535-13.891c-.892-2.949-5.526-1.692-4.629,1.276Z"/><path class="a" d="M231.292,236.186a95.311,95.311,0,0,1,.994-10.35,20.784,20.784,0,0,0,6.909-5.307,22.6,22.6,0,0,0,3.223-4.831c2.68-6.343,4.585-13.333,4.456-18.277a6.544,6.544,0,0,0,.474-1.533c.466-2.728.891-5.464,1.254-8.2.273-2.087.5-4.307-.364-6.229a5.831,5.831,0,0,0-9.658-1.521,5.272,5.272,0,0,0-3.836-4.706,6.307,6.307,0,0,0-6.313,2.172l-.286.349-.631-1.531a6.4,6.4,0,0,0-4.679-3.231,5.372,5.372,0,0,0-5.381,3l-.768.777c1.79-9.928,3.772-24.084,4.418-30.485a5.211,5.211,0,0,0-4.466-5.813c-4.316-.563-6.227,2.032-6.828,5.434-1.9,10.686-4.311,23.239-5.977,35.45-2.649.929-4.763,2.75-5.189,5.634-.5,3.357-1.1,6.7-1.434,10.075a37.875,37.875,0,0,0,.22,11.416,16.179,16.179,0,0,0,5.66,9.686,22.156,22.156,0,0,0,1.959,1.339,103.979,103.979,0,0,1-1.588,11.519Z"/><path class="d" d="M244.419,199.486a40.054,40.054,0,0,1-1.676,8.246,35.66,35.66,0,0,1-3.239,8.314c-2.5,4.139-6.446,7.64-11.31,8.464a2.421,2.421,0,0,0-1.677,2.953,2.457,2.457,0,0,0,2.953,1.676c5.922-1,10.858-5.385,13.98-10.347a38.791,38.791,0,0,0,3.792-9.353,46.611,46.611,0,0,0,1.977-9.953,2.42,2.42,0,0,0-2.4-2.4,2.448,2.448,0,0,0-2.4,2.4Z"/><path class="d" d="M206.147,181.992c.957-6.977,2.121-13.924,3.35-20.857q.859-4.846,1.745-9.689.405-2.244.808-4.489a7.877,7.877,0,0,1,.911-2.89,2.442,2.442,0,0,1,1.441-1.13,3.991,3.991,0,0,1,2.972.252c1.643.96,1.375,2.72,1.2,4.339-.5,4.594-1.141,9.174-1.81,13.746-.852,5.828-1.763,11.651-2.87,17.437a2.463,2.463,0,0,0,1.676,2.952,2.422,2.422,0,0,0,2.952-1.676c2.091-10.918,3.745-21.991,4.915-33.046a8.005,8.005,0,0,0-2.625-7.166,8.121,8.121,0,0,0-13.256,5.182c-.716,3.418-1.246,6.887-1.866,10.324-1.525,8.455-3,16.921-4.169,25.435a2.483,2.483,0,0,0,1.676,2.952,2.417,2.417,0,0,0,2.952-1.676Z"/><path class="d" d="M205.776,231.659a107.4,107.4,0,0,0,1.614-11.421,2.41,2.41,0,0,0-2.4-2.4,2.464,2.464,0,0,0-2.4,2.4q-.113,1.28-.259,2.555-.076.667-.162,1.336c-.008.067-.105.8-.058.455s-.055.393-.065.46c-.252,1.787-.547,3.568-.9,5.339a2.4,2.4,0,0,0,4.629,1.276Z"/><path class="d" d="M210.114,219.35a21.681,21.681,0,0,1-6.518-3.912A14,14,0,0,1,200.021,209c-1.632-6.044-.419-12.676.533-18.736.347-2.21.355-4.466,2.377-5.815,2.17-1.448,5.145-1.745,7.637-2.3q1.036-.231,2.071-.467c.078-.018,1.369-.206.59-.145.339-.027.675-.046,1.016-.041.152,0,.3.011.455.02.378.022-.061-.055.452.06,1.387.312,2.853,1.04,3.126,2.722.371,2.283-2.518,3.557-4.215,4.484-2.372,1.295-4.848,2.377-7.306,3.5a2.418,2.418,0,0,0-.861,3.283,2.457,2.457,0,0,0,3.284.861c2.563-1.166,5.142-2.3,7.609-3.661,2.712-1.5,5.49-3.344,6.151-6.6,1.17-5.766-4.418-9.908-9.711-9.422a33.329,33.329,0,0,0-4.167.835c-1.8.4-3.618.766-5.377,1.309a10.452,10.452,0,0,0-6.652,5.266,18.889,18.889,0,0,0-1.146,5.083c-.309,1.967-.612,3.936-.86,5.912a46.5,46.5,0,0,0-.31,11.462,21.319,21.319,0,0,0,4.187,10.766c2.278,2.89,5.483,4.657,8.787,6.132a2.475,2.475,0,0,0,3.284-.861,2.419,2.419,0,0,0-.861-3.284Z"/><path class="d" d="M218.071,206.205a12.886,12.886,0,0,1-.556,1.649l.242-.574a9.589,9.589,0,0,1-1.177,2.037l.375-.486a9.584,9.584,0,0,1-1.218,1.3,2.4,2.4,0,0,0,1.7,4.1,2.637,2.637,0,0,0,1.7-.7,12.2,12.2,0,0,0,3.569-6.041,2.49,2.49,0,0,0-.242-1.849,2.4,2.4,0,0,0-3.284-.861,2.491,2.491,0,0,0-1.1,1.434Z"/><path class="d" d="M229.9,225.569a100.867,100.867,0,0,0-1,10.617,2.411,2.411,0,0,0,2.4,2.4,2.46,2.46,0,0,0,2.4-2.4c.132-1.757.234-3.516.37-5.272.062-.792.13-1.583.217-2.372.018-.166.037-.331.057-.5.013-.108.026-.215.04-.323q-.077.559-.021.165c.052-.348.107-.7.17-1.043a2.4,2.4,0,1,0-4.628-1.276Z"/><path class="d" d="M219.527,177.2a3.24,3.24,0,0,1,5.54-.425,3.56,3.56,0,0,1,.212.335c.2.319-.065-.123-.052-.122-.243-.019.531.183,0-.026-.1-.039-.014-.247.008.091.03.482.068.96.08,1.443.03,1.228-.006,2.457-.061,3.684-.127,2.839-.372,5.677-.714,8.5a18.4,18.4,0,0,1-.49,3.3,1.926,1.926,0,0,1-1.614,1.094,3.133,3.133,0,0,1-2.7-1.008c-.767-1.034-.6-2.585-.425-4.041a2.413,2.413,0,0,0-2.4-2.4,2.459,2.459,0,0,0-2.4,2.4,10.053,10.053,0,0,0,.868,6.119,7.476,7.476,0,0,0,4.687,3.5,7.771,7.771,0,0,0,5.85-.8,6.464,6.464,0,0,0,2.972-4.809,109.5,109.5,0,0,0,1.148-11.387c.078-1.565.137-3.14.064-4.706a6.568,6.568,0,0,0-1.632-4.522c-3.648-4.04-10.536-3.7-13.086,1.365-1.387,2.751,2.753,5.184,4.145,2.422Z"/><path class="d" d="M240.273,181.629a3.494,3.494,0,0,1,5.6.486,6.7,6.7,0,0,1,.5,4.082c-.159,1.8-.462,3.6-.74,5.387a20.358,20.358,0,0,1-.923,4.818,2.185,2.185,0,0,1-.767,1c.32-.245-.678.281-.271.134-.073.026-.727.144-.4.11a3.554,3.554,0,0,1-1.592-.25c-.43-.141.057.081-.341-.145-.054-.031-.584-.429-.259-.143a3.522,3.522,0,0,1-.312-.311c.123.171.137.187.043.046-.056-.086-.347-.732-.212-.363a4.409,4.409,0,0,1-.276-1.532,2.452,2.452,0,0,0-2.4-2.4,2.423,2.423,0,0,0-2.4,2.4c.166,3.208,1.5,5.845,4.636,6.991a6.92,6.92,0,0,0,8.418-2.63,13.008,13.008,0,0,0,1.478-5.157q.52-3.227.946-6.468c.474-3.657.284-7.592-2.807-10.1a8.329,8.329,0,0,0-11.316.652c-2.177,2.2,1.216,5.593,3.394,3.394Z"/><path class="d" d="M224.429,194.462a7.435,7.435,0,0,0,5.814,6.886,8.144,8.144,0,0,0,9.182-3.849c.837-1.514.842-3.388.99-5.081.173-1.972.273-3.95.352-5.928.152-3.793.991-8.129-1.692-11.241-3.266-3.79-9.21-3.135-12.341.457a2.459,2.459,0,0,0,0,3.394,2.421,2.421,0,0,0,3.394,0,4.165,4.165,0,0,1,3.636-1.635,2.912,2.912,0,0,1,2.41,2.35,32.8,32.8,0,0,1-.15,5.154c-.064,1.86-.142,3.72-.266,5.577-.062.926-.134,1.851-.227,2.775-.041.4-.083.806-.135,1.208-.024.186-.2.881.051.219a3.267,3.267,0,0,1-1.718,1.849,3.861,3.861,0,0,1-3.749-.568c.214.175-.243-.271-.281-.317.219.256-.237-.392-.284-.486.212.419-.1-.334-.132-.437q-.049-.2-.081-.4.06.474.027.069c-.193-3.068-5-3.09-4.8,0Z"/><path class="b" d="M210.564,225.947c-3.609-.565-7.175-1.158-10.627-1.776a.889.889,0,0,0-1.03.682c-1.328,5.9-3.018,14.75-4.473,22.735l42.664,6.371c1.4-8.664,2.476-16.97,3.136-23.124a.888.888,0,0,0-.785-.982C230.455,228.805,220.353,227.48,210.564,225.947Z"/><path class="d" d="M196.748,248.226q1.13-6.189,2.326-12.364.563-2.874,1.153-5.743a30.278,30.278,0,0,1,1.1-4.887l-.617,1.059q-1.572.214-.75.311l.659.116q.663.117,1.326.231,1.114.193,2.23.38,2.487.417,4.977.81,5.157.814,10.326,1.542,5.089.718,10.187,1.373,2.43.312,4.864.611,1.19.145,2.378.288l1.28.152.424.05q.941.157-.182-.164l-.617-1.059c-.065-.169.028.046,0,.182a5.034,5.034,0,0,0-.062.568q-.064.584-.13,1.168-.159,1.391-.326,2.781-.348,2.877-.734,5.748-.821,6.095-1.8,12.166c-1.379,8.533-2.944,17.062-5.084,25.441a35.068,35.068,0,0,1-4.45,11.16,25.44,25.44,0,0,1-7.57,7.313,28.962,28.962,0,0,1-19.555,4.084c-8.5-1.2-16.565-5.768-21.218-13.084-1.654-2.6-5.81-.194-4.145,2.423,6.695,10.525,19.353,16.44,31.717,15.688,11.555-.7,22.546-7.543,27.265-18.3,2.556-5.824,3.716-12.365,4.978-18.57,1.356-6.668,2.495-13.38,3.5-20.109.893-5.954,1.693-11.925,2.351-17.91.2-1.848-.462-3.657-2.455-4.143a49.1,49.1,0,0,0-5.562-.674q-5.747-.7-11.482-1.492-5.859-.81-11.706-1.719-2.947-.46-5.89-.954a32.756,32.756,0,0,0-5.789-.936c-2.113.048-2.934,1.837-3.324,3.613-.353,1.611-.689,3.226-1.018,4.842-.744,3.652-1.447,7.311-2.133,10.974q-.538,2.877-1.064,5.757A2.467,2.467,0,0,0,193.8,249.9a2.421,2.421,0,0,0,2.952-1.676Z"/><path class="d" d="M154.6,160.857a137.023,137.023,0,0,1,20.527,6,44.227,44.227,0,0,1,18.153,13.453,2.418,2.418,0,0,0,3.394,0,2.451,2.451,0,0,0,0-3.394,48.609,48.609,0,0,0-19.691-14.464,133.478,133.478,0,0,0-21.107-6.218c-3.013-.633-4.3,3.993-1.276,4.628Z"/><path class="d" d="M155.853,105.536a24.1,24.1,0,0,1-1.843,5.812c-.3.724-.619,1.44-.9,2.173-.068.179-.133.359-.2.54-.223.632.122-.242-.037.1a55.476,55.476,0,0,1-3.186,5.891,57.808,57.808,0,0,1-12.618,14.823,23.193,23.193,0,0,1-9.207,4.726c-3.009.695-1.735,5.324,1.276,4.629,7.167-1.655,13.131-6.895,17.807-12.337a64.357,64.357,0,0,0,9.918-14.962,41.4,41.4,0,0,0,3.784-11.4,2.412,2.412,0,0,0-2.4-2.4,2.461,2.461,0,0,0-2.4,2.4Z"/><path class="d" d="M62.567,105.988C65.931,120.469,75,134.509,88.093,141.969a33.127,33.127,0,0,0,11.459,4.077,2.477,2.477,0,0,0,2.952-1.676,2.418,2.418,0,0,0-1.676-2.952c-14.107-2.1-25.027-14.6-30.486-27.051a55.1,55.1,0,0,1-3.146-9.655c-.7-3.008-5.328-1.735-4.629,1.276Z"/><path class="d" d="M66.589,79.26A10.486,10.486,0,0,0,55,77.662a10.2,10.2,0,0,0-5.129,7.113A26.631,26.631,0,0,0,53.953,105.3c2.886,4.216,7,7.262,12.315,6.537a2.414,2.414,0,0,0,1.676-2.952,2.465,2.465,0,0,0-2.952-1.677c-3.72.508-6.592-3.493-8.1-6.335a22.937,22.937,0,0,1-2.741-8.938,19.936,19.936,0,0,1,.207-5.2,12.164,12.164,0,0,1,.619-2.275,6.758,6.758,0,0,1,.492-.948c.054-.089.5-.714.165-.288a4.429,4.429,0,0,1,2.949-1.736A5.371,5.371,0,0,1,63.2,82.654c2.286,2.068,5.691-1.316,3.394-3.394Z"/><path class="d" d="M160.165,82.654a5.373,5.373,0,0,1,4.617-1.172,4.462,4.462,0,0,1,2.948,1.736c-.338-.426.111.2.166.288a6.752,6.752,0,0,1,.491.948,12.164,12.164,0,0,1,.619,2.275,19.98,19.98,0,0,1,.208,5.2,22.932,22.932,0,0,1-2.741,8.938c-1.513,2.842-4.384,6.844-8.105,6.335a2.483,2.483,0,0,0-2.952,1.677,2.416,2.416,0,0,0,1.676,2.952c8.678,1.185,13.724-7.348,15.973-14.5a25,25,0,0,0,.69-11.184c-.482-3.106-1.769-6.089-4.415-7.92a10.4,10.4,0,0,0-12.569,1.029c-2.295,2.077,1.107,5.463,3.394,3.394Z"/><path class="d" d="M102.968,120.084a19.119,19.119,0,0,0,9.208,2.131,14.979,14.979,0,0,0,9.294-2.742,2.412,2.412,0,0,0,0-3.394,2.462,2.462,0,0,0-3.394,0c.728-.567.165-.134-.022-.014s-.375.227-.569.329c-.1.053-.2.1-.3.152-.39.2.094-.052.1-.032a5.91,5.91,0,0,1-.785.285,13.9,13.9,0,0,1-2.2.5c.355-.053-.061,0-.207.017q-.323.033-.647.054-.78.05-1.562.043-.7,0-1.4-.05c-.213-.014-.427-.032-.64-.053-.025,0-.8-.111-.307-.033a15.826,15.826,0,0,1-2.052-.456c-.287-.086-.568-.189-.851-.286-.613-.21.354.183-.2-.077-.352-.166-.7-.339-1.044-.521a2.452,2.452,0,0,0-3.283.861,2.427,2.427,0,0,0,.861,3.284Z"/><path class="d" d="M110.952,98.4a43.217,43.217,0,0,1,1.017,4.651l-.086-.638a2.813,2.813,0,0,1,.017.642l.086-.638a1.515,1.515,0,0,1-.071.288l.242-.573a1.157,1.157,0,0,1-.1.186l.375-.486a.98.98,0,0,1-.152.15l.486-.376a2.89,2.89,0,0,1-.369.195l.574-.242a2.647,2.647,0,0,1-.621.181l.638-.085a2.526,2.526,0,0,1-.583,0l.638.085c-.22-.03-.435-.084-.655-.113a1.812,1.812,0,0,0-.957-.043,1.774,1.774,0,0,0-.892.285,2.4,2.4,0,0,0-.861,3.283,2.3,2.3,0,0,0,1.434,1.1c.5.068.988.195,1.5.218a4.8,4.8,0,0,0,2.21-.526,3.194,3.194,0,0,0,1.769-2.1,5.276,5.276,0,0,0-.023-2.265c-.253-1.5-.6-2.983-.984-4.453a2.4,2.4,0,0,0-4.629,1.276Z"/><path class="d" d="M86.392,85.23c-.774,2.516-.269,8.3,4.5,8.8,6.3-.038,6.636-7.036,4.515-10.327C93.668,81.006,88.562,79.886,86.392,85.23Z"/><path class="d" d="M136.968,85.23c.774,2.516.27,8.3-4.5,8.8-6.3-.038-6.637-7.036-4.516-10.327C129.692,81.006,134.8,79.886,136.968,85.23Z"/></svg>