<!DOCTYPE svg PUBLIC "-//W3C//DTD SVG 1.1//EN" "http://www.w3.org/Graphics/SVG/1.1/DTD/svg11.dtd">
<!-- Uploaded to: SVG Repo, www.svgrepo.com, Transformed by: SVG Repo Mixer Tools -->
<svg fill="#3B82F6" height="800px" width="800px" version="1.1" id="Layer_1" xmlns="http://www.w3.org/2000/svg" xmlns:xlink="http://www.w3.org/1999/xlink" viewBox="0 0 512.001 512.001" xml:space="preserve" stroke="#3B82F6">
<g id="SVGRepo_bgCarrier" stroke-width="0"/>
<g id="SVGRepo_tracerCarrier" stroke-linecap="round" stroke-linejoin="round"/>
<g id="SVGRepo_iconCarrier"> <g> <g> <path d="M386.632,52.334c-37.756-36.042-87.35-54.558-139.645-52.12C199.2,2.436,154.218,22.978,120.328,58.056 c-33.874,35.061-52.883,80.719-53.527,128.566c-0.743,55.184,22.592,107.81,64.023,144.382 c8.815,7.781,13.872,18.985,13.872,30.738v33.391c0,21.949,14.199,40.633,33.889,47.383c1.805,16.372,8.721,31.924,19.946,44.181 c14.727,16.081,35.674,25.305,57.471,25.305c21.795,0,42.743-9.224,57.471-25.304c11.225-12.257,18.14-27.81,19.946-44.182 c19.69-6.751,33.887-25.434,33.887-47.383v-33.391c0-11.788,4.934-22.884,13.536-30.442 c40.913-35.943,64.377-87.73,64.377-142.079C445.216,137.009,424.411,88.395,386.632,52.334z M333.912,395.569L333.912,395.569 c0,9.205-7.529,15.971-16.729,16.258c-0.073,0.002-0.146,0.011-0.219,0.012c-1.901-0.008-10.68-0.01-17.829-0.012 c-5.384-0.001-9.745,4.363-9.745,9.747v14.055c0,5.295,4.29,9.588,9.585,9.589h0.159c-1.785,6.979-5.266,13.439-10.29,18.925 c-8.418,9.193-20.39,14.465-32.846,14.465c-12.455,0-24.427-5.272-32.846-14.465c-5.024-5.486-8.506-11.946-10.29-18.925 c0.053,0,0.107,0,0.159,0c5.295-0.001,9.585-4.294,9.585-9.589v-14.055c0-5.384-4.361-9.747-9.745-9.747 c-7.149,0.001-15.928,0.004-17.829,0.012c-0.073-0.001-0.146-0.01-0.219-0.012c-9.2-0.287-16.729-7.053-16.729-16.258v-17.133 h155.825V395.569z M358.801,306.214c-11.618,10.207-19.596,23.836-23.014,38.83h-63.091V302.88 c10.745-9.076,20.992-17.386,30.192-24.844c44.048-35.711,75.876-61.513,75.876-103.318c0-19.387-6.757-37.575-19.027-51.213 c-13.008-14.457-31.014-22.42-50.703-22.42c-20.965,0-39.232,9.256-53.033,26.82c-13.801-17.563-32.069-26.82-53.034-26.82 c-19.688,0-37.695,7.962-50.702,22.42c-12.269,13.638-19.027,31.826-19.027,51.213c0,41.805,31.826,67.606,75.876,103.318 c9.199,7.458,19.446,15.768,30.191,24.844v42.164h-63.117c-3.458-14.997-11.523-28.71-23.265-39.075 c-34.125-30.122-53.344-73.459-52.732-118.899c1.089-80.888,67.638-149.749,148.349-153.502 c43.081-2.012,83.945,13.237,115.039,42.919c31.113,29.7,48.248,69.736,48.248,112.733 C411.825,233.965,392.498,276.608,358.801,306.214z M256,273.292c-9.199-7.688-17.911-14.751-25.859-21.194 c-42.894-34.775-63.513-52.59-63.513-77.379c0-19.508,12.735-40.241,36.338-40.241c26.86,0,36.526,31.799,36.977,33.337 c2.042,7.17,8.583,12.164,16.046,12.164c7.487,0,14.046-4.942,16.066-12.151c0.397-1.361,10.041-33.349,36.981-33.349 c23.603,0,36.338,20.733,36.338,40.241c0,24.788-20.618,42.605-63.512,77.379C273.911,258.541,265.199,265.605,256,273.292z"/> </g> </g> </g>
</svg>