<!DOCTYPE svg PUBLIC "-//W3C//DTD SVG 1.1//EN" "http://www.w3.org/Graphics/SVG/1.1/DTD/svg11.dtd">
<!-- Uploaded to: SVG Repo, www.svgrepo.com, Transformed by: SVG Repo Mixer Tools -->
<svg fill="#3B82F6" width="800px" height="800px" viewBox="0 0 32 32" xmlns="http://www.w3.org/2000/svg">
<g id="SVGRepo_bgCarrier" stroke-width="0"/>
<g id="SVGRepo_tracerCarrier" stroke-linecap="round" stroke-linejoin="round"/>
<g id="SVGRepo_iconCarrier"> <title/> <g data-name="Layer 5" id="Layer_5"> <path d="M21.15,3H10.85A3.86,3.86,0,0,0,7,6.85v18.3A3.86,3.86,0,0,0,10.85,29h10.3A3.86,3.86,0,0,0,25,25.15V6.85A3.86,3.86,0,0,0,21.15,3ZM10.85,5h10.3A1.85,1.85,0,0,1,23,6.85V7H9V6.85A1.85,1.85,0,0,1,10.85,5ZM23,25.15A1.85,1.85,0,0,1,21.15,27H10.85A1.85,1.85,0,0,1,9,25.15V25H23ZM9,23V9H23V23Z"/> <path d="M19,12.79l-4.29,4.3L13,15.29a1,1,0,0,0-1.42,1.42l2.5,2.5a1,1,0,0,0,1.42,0l5-5A1,1,0,0,0,19,12.79Z"/> </g> </g>
</svg>